<svg width="92" height="92" viewBox="0 0 92 92" fill="none" xmlns="http://www.w3.org/2000/svg">
<path d="M80.8065 26.8333C80.1441 25.6856 79.1957 24.7293 78.0536 24.0574C76.9114 23.3856 75.6147 23.0213 74.2898 22.9999H25.2232L22.9998 14.3366C22.7752 13.5003 22.274 12.7647 21.578 12.2496C20.8819 11.7345 20.0319 11.4703 19.1665 11.4999H11.4998C10.4832 11.4999 9.50815 11.9038 8.78926 12.6227C8.07037 13.3416 7.6665 14.3166 7.6665 15.3333C7.6665 16.3499 8.07037 17.3249 8.78926 18.0438C9.50815 18.7627 10.4832 19.1666 11.4998 19.1666H16.2532L26.8332 58.4966C27.0578 59.3329 27.559 60.0685 28.255 60.5836C28.9511 61.0987 29.8011 61.3629 30.6665 61.3333H65.1665C65.8744 61.3311 66.5679 61.133 67.1701 60.7609C67.7722 60.3887 68.2596 59.8571 68.5782 59.2249L81.1515 34.0783C81.6965 32.936 81.9502 31.6766 81.89 30.4124C81.8298 29.1482 81.4575 27.9186 80.8065 26.8333ZM62.7898 53.6666H33.5798L27.3315 30.6666H74.2898L62.7898 53.6666Z" fill="#8367D8"/>
<path d="M28.75 80.5C31.9256 80.5 34.5 77.9256 34.5 74.75C34.5 71.5744 31.9256 69 28.75 69C25.5744 69 23 71.5744 23 74.75C23 77.9256 25.5744 80.5 28.75 80.5Z" fill="#8367D8"/>
<path d="M67.083 80.5C70.2586 80.5 72.833 77.9256 72.833 74.75C72.833 71.5744 70.2586 69 67.083 69C63.9074 69 61.333 71.5744 61.333 74.75C61.333 77.9256 63.9074 80.5 67.083 80.5Z" fill="#8367D8"/>
</svg>
